<?xml version="1.0" encoding="utf-8"?>
<!-- Generator: Adobe Illustrator 24.3.0, SVG Export Plug-In . SVG Version: 6.00 Build 0)  -->
<svg version="1.1" id="Capa_1" xmlns="http://www.w3.org/2000/svg" xmlns:xlink="http://www.w3.org/1999/xlink" x="0px" y="0px"
	 viewBox="0 0 99.5 99.5" style="enable-background:new 0 0 99.5 99.5;" xml:space="preserve">
<style type="text/css">
	.st0{fill:#A3A3A3;}
</style>
<g>
	<g>
		<path class="st0" d="M98.6,52.2l-0.7-0.1c0.2-9.3-1.2-11.2-2.9-16.9h0.9c0.4,0,0.8-0.3,0.8-0.8v-0.9c0-0.4-0.3-0.8-0.8-0.8H41.1
			c-0.8,0-1.6,0.2-2.3,0.6l-16.6,9.8c0,0-16.6,0.7-19.2,3.2c-1.3,1.3-2.5,3.8-2.9,6.8c-0.4,2.9,0.7,6.1,1.3,6.7c0.6,0.7,1.7,1,1.7,1
			l0.4,0.8c0.3,0.5,0.8,0.8,1.3,0.8l2.7-0.1v-7.4c0-2.9,2.3-5.2,5.2-5.2h7.1c2.5,0,4.5,2,4.5,4.5V62l0.1,0l43.4-0.7l0.6,0.1v-6.4
			c0-2.9,2.3-5.2,5.2-5.2h7.1c2.5,0,4.5,2,4.5,4.5v8.3l6-1.3c0.3-0.1,0.6-0.3,0.7-0.6l0.4-0.9l6.1-0.8c0.5-0.1,0.9-0.5,0.9-1.1v-4.9
			C99.5,52.8,99.1,52.3,98.6,52.2z M46.4,43.7c-0.1,0.1-0.3,0.2-0.5,0.2H32.7c0,0,0.8-0.4,1.2-1c0.4-0.6,0.2-2-0.3-2.5
			c-0.4-0.4-1.3-0.7-1.3-0.7l6.7-4.1c0.4-0.3,0.9-0.4,1.4-0.4H46c0.2,0,0.4,0.1,0.5,0.2s0.2,0.3,0.2,0.5l-0.1,7.2
			C46.6,43.4,46.6,43.6,46.4,43.7z M63,43.1c-0.4,0.5-1.1,0.9-1.8,0.9l-10.6,0.2c-0.2,0-0.4-0.1-0.5-0.2c-0.1-0.1-0.2-0.3-0.2-0.5
			v-7.6c0-0.4,0.3-0.7,0.7-0.7h11.7c0.4,0,0.7,0.3,0.7,0.6l0.5,5.3C63.7,41.9,63.5,42.6,63,43.1z M94.4,43.1
			c-0.1,0.1-0.2,0.2-0.3,0.2l-21.5,0.2c-0.9,0-1.8-0.5-2.3-1.3l-2.3-6c-0.1-0.2-0.1-0.5,0.1-0.6c0.1-0.2,0.3-0.3,0.6-0.3h22.7
			c0.3,0,0.6,0.2,0.7,0.5l2.3,7.1C94.4,42.9,94.4,43,94.4,43.1z"/>
		<path class="st0" d="M15.9,51.4c-4.2,0-7.7,3.4-7.7,7.7c0,0.3,0,0.6,0.1,1c0.5,3.8,3.7,6.7,7.6,6.7c4,0,7.3-3.1,7.6-7
			c0-0.2,0-0.4,0-0.7C23.6,54.8,20.2,51.4,15.9,51.4z M12.1,56.1l1.6,1.6c-0.1,0.2-0.2,0.4-0.3,0.7h-2.2
			C11.3,57.5,11.6,56.8,12.1,56.1z M11.2,59.7h2.2c0.1,0.2,0.2,0.5,0.3,0.7l-1.6,1.6C11.6,61.3,11.3,60.5,11.2,59.7z M15.3,63.8
			c-0.8-0.1-1.6-0.4-2.2-0.9l1.6-1.6c0.2,0.1,0.4,0.2,0.7,0.3V63.8z M15.3,56.5c-0.2,0.1-0.5,0.2-0.7,0.3L13,55.2
			c0.6-0.5,1.4-0.8,2.2-0.9L15.3,56.5L15.3,56.5z M16.6,54.3c0.8,0.1,1.6,0.4,2.2,0.9l-1.6,1.6c-0.2-0.1-0.4-0.2-0.7-0.3L16.6,54.3
			L16.6,54.3z M16.6,63.8v-2.2c0.2-0.1,0.5-0.1,0.7-0.3l1.6,1.6C18.2,63.4,17.4,63.7,16.6,63.8z M19.8,62l-1.6-1.6
			c0.1-0.2,0.2-0.4,0.3-0.7h2.2C20.6,60.5,20.3,61.3,19.8,62z M18.5,58.4c-0.1-0.2-0.2-0.5-0.3-0.7l1.6-1.6c0.5,0.6,0.8,1.4,0.9,2.2
			H18.5z"/>
		<path class="st0" d="M76.9,51.4c-4.2,0-7.7,3.4-7.7,7.7c0,0.3,0,0.6,0.1,1c0.5,3.8,3.7,6.7,7.6,6.7c4,0,7.3-3.1,7.6-7
			c0-0.2,0-0.4,0-0.7C84.6,54.8,81.2,51.4,76.9,51.4z M73.1,56.1l1.6,1.6c-0.1,0.2-0.2,0.4-0.3,0.7h-2.2
			C72.3,57.5,72.6,56.8,73.1,56.1z M72.2,59.7h2.2c0.1,0.2,0.2,0.5,0.3,0.7l-1.6,1.6C72.6,61.3,72.3,60.5,72.2,59.7z M76.3,63.8
			c-0.8-0.1-1.6-0.4-2.2-0.9l1.6-1.6c0.2,0.1,0.4,0.2,0.7,0.3V63.8z M76.3,56.5c-0.2,0.1-0.5,0.2-0.7,0.3L74,55.2
			c0.6-0.5,1.4-0.8,2.2-0.9L76.3,56.5L76.3,56.5z M77.6,54.3c0.8,0.1,1.6,0.4,2.2,0.9l-1.6,1.6c-0.2-0.1-0.4-0.2-0.7-0.3L77.6,54.3
			L77.6,54.3z M77.6,63.8v-2.2c0.2-0.1,0.5-0.1,0.7-0.3l1.6,1.6C79.2,63.4,78.4,63.7,77.6,63.8z M80.8,62l-1.6-1.6
			c0.1-0.2,0.2-0.4,0.3-0.7h2.2C81.6,60.5,81.3,61.3,80.8,62z M79.5,58.4c-0.1-0.2-0.2-0.5-0.3-0.7l1.6-1.6c0.5,0.6,0.8,1.4,0.9,2.2
			H79.5z"/>
	</g>
</g>
</svg>
