<?xml version="1.0" encoding="utf-8"?>
<!-- Generator: Adobe Illustrator 24.3.0, SVG Export Plug-In . SVG Version: 6.00 Build 0)  -->
<svg version="1.1" id="Capa_1" xmlns="http://www.w3.org/2000/svg" xmlns:xlink="http://www.w3.org/1999/xlink" x="0px" y="0px"
	 viewBox="0 0 98.8 98.8" style="enable-background:new 0 0 98.8 98.8;" xml:space="preserve">
<style type="text/css">
	.st0{fill:#A3A3A3;}
</style>
<g>
	<g>
		<path class="st0" d="M15.8,52.9c-4.3,0-7.8,3.5-7.8,7.8c0,0.3,0,0.7,0.1,1c0.5,3.8,3.8,6.8,7.7,6.8c4.1,0,7.4-3.1,7.8-7.1
			c0-0.2,0-0.4,0-0.7C23.6,56.4,20.1,52.9,15.8,52.9z M11.9,57.8l1.6,1.6c-0.1,0.2-0.2,0.4-0.3,0.7H11
			C11.1,59.2,11.4,58.4,11.9,57.8z M10.9,61.4h2.3c0.1,0.2,0.2,0.5,0.3,0.7l-1.6,1.6C11.4,63,11.1,62.3,10.9,61.4z M15.1,65.6
			c-0.8-0.1-1.6-0.4-2.3-0.9l1.6-1.6c0.2,0.1,0.4,0.2,0.7,0.3V65.6z M15.1,58.1c-0.2,0.1-0.5,0.2-0.7,0.3l-1.6-1.6
			c0.7-0.5,1.4-0.8,2.3-0.9V58.1z M16.5,55.9c0.9,0.1,1.6,0.4,2.3,0.9l-1.6,1.6c-0.2-0.1-0.4-0.2-0.7-0.3V55.9z M16.5,65.6v-2.3
			c0.2-0.1,0.5-0.2,0.7-0.3l1.6,1.6C18.1,65.1,17.3,65.5,16.5,65.6z M19.7,63.7l-1.6-1.6c0.1-0.2,0.2-0.4,0.3-0.7h2.2
			C20.5,62.3,20.2,63.1,19.7,63.7z M18.4,60.1c-0.1-0.2-0.2-0.5-0.3-0.7l1.6-1.6c0.5,0.7,0.8,1.4,0.9,2.3L18.4,60.1L18.4,60.1z"/>
		<path class="st0" d="M81.5,52.9c-4.3,0-7.8,3.5-7.8,7.8c0,0.3,0,0.7,0.1,1c0.5,3.8,3.8,6.8,7.7,6.8c4.1,0,7.4-3.1,7.8-7.1
			c0-0.2,0-0.4,0-0.7C89.3,56.4,85.8,52.9,81.5,52.9z M77.6,57.8l1.6,1.6c-0.1,0.2-0.2,0.4-0.3,0.7h-2.2
			C76.8,59.2,77.1,58.4,77.6,57.8z M76.7,61.4h2.3c0.1,0.2,0.2,0.5,0.3,0.7l-1.6,1.6C77.1,63,76.8,62.3,76.7,61.4z M80.8,65.6
			c-0.8-0.1-1.6-0.4-2.3-0.9l1.6-1.6c0.2,0.1,0.4,0.2,0.7,0.3V65.6z M80.8,58.1c-0.2,0.1-0.5,0.2-0.7,0.3l-1.6-1.6
			c0.7-0.5,1.4-0.8,2.3-0.9C80.8,55.9,80.8,58.1,80.8,58.1z M82.2,55.9c0.9,0.1,1.6,0.4,2.3,0.9l-1.6,1.6c-0.2-0.1-0.4-0.2-0.7-0.3
			V55.9z M82.2,65.6v-2.3c0.2-0.1,0.5-0.2,0.7-0.3l1.6,1.6C83.8,65.1,83,65.5,82.2,65.6z M85.4,63.7l-1.6-1.6
			c0.1-0.2,0.2-0.4,0.3-0.7h2.2C86.2,62.3,85.9,63.1,85.4,63.7z M84.1,60.1c-0.1-0.2-0.2-0.5-0.3-0.7l1.6-1.6
			c0.5,0.7,0.8,1.4,0.9,2.3L84.1,60.1L84.1,60.1z"/>
		<path class="st0" d="M98.1,50.5L96.6,49l0-4.5c0-1.2-0.4-2.3-1.2-3.2l-5.5-6.1v0c0-1.3-0.9-2.4-2.2-2.6c-6.6-1.2-27-4.4-43.2-0.1
			c-10,2.7-20.2,8.1-20.2,8.1S6.6,42.8,2.3,48.3C0.9,50.2,0.3,52.8,0,55c-0.3,3.2,1.8,6.1,4.9,6.8l1.6,0.4c0-0.1,0-0.2,0-0.3
			c-0.1-0.4-0.1-0.8-0.1-1.2c0-5.2,4.2-9.4,9.4-9.4c5.2,0,9.4,4.2,9.4,9.4c0,0.3,0,0.5,0,0.8c0,0.3-0.1,0.6-0.1,0.9l47.3,0.1
			c0-0.2-0.1-0.4-0.1-0.7c-0.1-0.4-0.1-0.8-0.1-1.2c0-5.2,4.2-9.4,9.4-9.4c5.2,0,9.4,4.2,9.4,9.4c0,0.3,0,0.5,0,0.8
			c0,0.4-0.1,0.7-0.2,1.1l0.6,0l2.7-1.5c2.8-1.5,4.6-4.4,4.7-7.6l0.1-1.4C98.8,51.5,98.6,50.9,98.1,50.5z M33.5,41.2l0.7-2.9
			c0,0,11-5.7,29.3-5.1v8.5l-29.4,2.3C34.2,44.1,34.3,42.2,33.5,41.2z M80.6,40.4l-13.8,1.1v-8.1c4.5,0.3,9.5,1,14.8,2.3
			c0.5,0.1,1,0.5,1.1,1.1c0.2,0.5,0.1,1.1-0.3,1.5L80.6,40.4z"/>
	</g>
</g>
</svg>
