<?xml version="1.0" encoding="utf-8"?>
<!-- Generator: Adobe Illustrator 24.3.0, SVG Export Plug-In . SVG Version: 6.00 Build 0)  -->
<svg version="1.1" id="Capa_1" xmlns="http://www.w3.org/2000/svg" xmlns:xlink="http://www.w3.org/1999/xlink" x="0px" y="0px"
	 viewBox="0 0 99.4 99.4" style="enable-background:new 0 0 99.4 99.4;" xml:space="preserve">
<style type="text/css">
	.st0{fill:#A3A3A3;}
</style>
<g>
	<g>
		<path class="st0" d="M17,49.7c-4.1,0-7.5,3.3-7.5,7.5c0,0.3,0,0.6,0.1,0.9c0.5,3.7,3.6,6.5,7.4,6.5c3.9,0,7.1-3,7.4-6.8
			c0-0.2,0-0.4,0-0.6C24.5,53,21.1,49.7,17,49.7z M13.3,54.3l1.5,1.5c-0.1,0.2-0.2,0.4-0.3,0.7h-2.1C12.5,55.7,12.8,55,13.3,54.3z
			 M12.4,57.8h2.2c0.1,0.2,0.1,0.4,0.3,0.6L13.3,60C12.8,59.4,12.5,58.6,12.4,57.8z M16.4,61.8c-0.8-0.1-1.5-0.4-2.2-0.9l1.5-1.5
			c0.2,0.1,0.4,0.2,0.6,0.3V61.8z M16.4,54.7c-0.2,0.1-0.5,0.2-0.7,0.3l-1.5-1.5c0.6-0.5,1.4-0.8,2.2-0.9V54.7z M17.6,52.5
			c0.8,0.1,1.6,0.4,2.2,0.9l-1.5,1.5c-0.2-0.1-0.4-0.2-0.7-0.3V52.5z M17.6,61.8v-2.2c0.2-0.1,0.4-0.1,0.6-0.3l1.5,1.5
			C19.2,61.4,18.5,61.7,17.6,61.8z M20.7,60l-1.5-1.5c0.1-0.2,0.2-0.4,0.3-0.6h2.1C21.5,58.6,21.2,59.4,20.7,60z M19.5,56.5
			c-0.1-0.2-0.2-0.5-0.3-0.7l1.5-1.5c0.5,0.6,0.8,1.4,0.9,2.2L19.5,56.5L19.5,56.5z"/>
		<path class="st0" d="M78.6,49.8c-4.1,0-7.4,3.3-7.4,7.4c0,0.3,0,0.6,0.1,0.9c0.5,3.7,3.6,6.5,7.4,6.5c3.9,0,7.1-3,7.4-6.8
			c0-0.2,0-0.4,0-0.6C86,53.1,82.7,49.8,78.6,49.8z M74.9,54.4l1.5,1.5c-0.1,0.2-0.2,0.4-0.3,0.7H74C74.1,55.7,74.4,55,74.9,54.4z
			 M74,57.8h2.2c0.1,0.2,0.2,0.4,0.3,0.6L74.9,60C74.4,59.4,74.1,58.6,74,57.8z M78,61.8c-0.8-0.1-1.5-0.4-2.2-0.9l1.5-1.5
			c0.2,0.1,0.4,0.2,0.6,0.3L78,61.8L78,61.8z M78,54.7c-0.2,0.1-0.5,0.2-0.7,0.3l-1.5-1.5c0.6-0.5,1.4-0.8,2.2-0.9V54.7z M79.3,52.6
			c0.8,0.1,1.5,0.4,2.2,0.9L79.9,55c-0.2-0.1-0.4-0.2-0.7-0.3V52.6z M79.3,61.8v-2.1c0.2-0.1,0.4-0.1,0.6-0.3l1.5,1.5
			C80.8,61.4,80.1,61.7,79.3,61.8z M82.3,60l-1.5-1.5c0.1-0.2,0.2-0.4,0.3-0.6h2.1C83.1,58.6,82.8,59.4,82.3,60z M81.1,56.6
			c-0.1-0.2-0.2-0.5-0.3-0.7l1.5-1.5c0.5,0.6,0.8,1.4,0.9,2.2H81.1z"/>
		<path class="st0" d="M99.4,52c0-1-0.3-1.9-0.9-2.8l-0.4-0.6L96.3,44c-0.3-0.9-1.1-1.5-2.1-1.6c-1.7-0.1-4.7-0.4-7.5-0.5
			c-9.8-5.2-27.9-10.4-43.3-4.7C40.4,38.4,31.4,43,31.4,43s-14.6-0.4-25,3.3c-4.1,1.5-6.7,5.5-6.3,9.9c0.1,0.9,0.2,1.6,0.3,2.3
			c0.2,1,1,1.7,2,1.8L8.9,61c-0.4-0.9-0.7-1.8-0.8-2.8C8,57.9,8,57.5,8,57.2c0-5,4-9,9-9c5,0,9,4,9,9c0,0.3,0,0.5,0,0.8
			c-0.1,1.1-0.4,2.2-0.9,3.1h45l0.4,0c-0.4-0.8-0.7-1.8-0.8-2.7c-0.1-0.4-0.1-0.8-0.1-1.1c0-5,4-9,9-9s9,4,9,9c0,0.3,0,0.5,0,0.8
			c-0.1,0.7-0.2,1.4-0.5,2.1l1-0.1l7-0.9c1.2-0.2,2.3-0.9,2.9-1.9l0.7-1.2c0.5-0.8,0.7-1.8,0.7-2.7L99.4,52z M74.6,43.1H40.5
			c0,0,0.2-0.8-0.7-1.8c0,0,8.7-5.6,22.2-4.2c3.7,0.4,8.2,0.7,14.4,3.9L74.6,43.1z"/>
	</g>
</g>
</svg>
