<?xml version="1.0" encoding="utf-8"?>
<!-- Generator: Adobe Illustrator 24.3.0, SVG Export Plug-In . SVG Version: 6.00 Build 0)  -->
<svg version="1.1" id="Capa_1" xmlns="http://www.w3.org/2000/svg" xmlns:xlink="http://www.w3.org/1999/xlink" x="0px" y="0px"
	 viewBox="0 0 99.3 99.3" style="enable-background:new 0 0 99.3 99.3;" xml:space="preserve">
<style type="text/css">
	.st0{fill:#A3A3A3;}
</style>
<g>
	<g>
		<path class="st0" d="M99.3,60.2c0-0.4-0.3-0.7-0.7-0.8l-1.3-0.2l0-1.4l0.6-0.6c0.4-0.3,0.6-0.8,0.5-1.3l-0.1-4.2
			c0-0.8-0.6-1.5-1.4-1.6c0,0-0.7-16.4-4.2-19.4C89,27.5,26,27.2,12.4,30c-1.1,0.2-2.1,0.8-2.9,1.7c-2.8,3.1-5.7,9.5-5.7,9.5
			s-1.7,0.5-2.4,2.9c-0.2,0.9-0.3,3.1-0.2,5.7l-0.1,0C0.5,49.8,0,50.3,0,51l0,2.5c0,0.3,0.1,0.6,0.3,0.8c0.2,0.2,0.5,0.3,0.8,0.3
			l0.2,0c0.1,1.3,0.2,2.6,0.2,3.7c0.1,2.2,1.9,3.8,4.1,3.8l6.9,0l2.6-5.7c0.5-1.1,1.5-1.8,2.7-1.8l6-0.1c1.1,0,2.1,0.6,2.7,1.5
			l3.4,6l39,0l3.1-5.9c0.5-1,1.6-1.6,2.7-1.6l5.7,0c1.1,0,2.2,0.6,2.7,1.6l4.8,8.9l5.9-0.1c1.1,0,2-0.7,2.4-1.7l2.5-0.9
			c0.3-0.1,0.5-0.4,0.5-0.8L99.3,60.2z M10,41.4c-0.5,0-1.1-0.3-1.4-0.7s-0.4-1-0.1-1.5l2.5-5.6c0.2-0.5,0.7-0.9,1.3-0.9l0.9,0
			l0.1,8.7L10,41.4z M28.1,39.7c-0.1,0.7-0.7,1.3-1.4,1.3l-12.8,0.2l-0.1-8.7l13.3-0.3c0.4,0,0.8,0.2,1.1,0.4
			c0.3,0.3,0.4,0.7,0.4,1.1L28.1,39.7z M57.3,40.6c-0.3,0.3-0.6,0.4-1,0.4l-21.9-0.1c-0.8,0-1.4-0.6-1.4-1.4l-0.1-5.8
			c0-0.4,0.1-0.8,0.4-1c0.3-0.3,0.6-0.4,1-0.4l21.9,0.2c0.8,0,1.4,0.6,1.4,1.4l0.1,5.8C57.7,40,57.6,40.4,57.3,40.6z M86.8,40.5
			c-0.3,0.3-0.7,0.5-1.1,0.5l-23.2-0.1c-0.8,0-1.4-0.6-1.4-1.4L61,33.7c0-0.4,0.1-0.8,0.4-1c0.3-0.3,0.6-0.4,1-0.4L83,32.4
			c1.6,0,2.9,1.1,3.3,2.7l0.9,4.2C87.2,39.7,87.1,40.2,86.8,40.5z"/>
		<path class="st0" d="M20.9,56c-4.2,0-7.6,3.5-7.5,7.7c0,0.3,0,0.6,0.1,1c0.5,3.7,3.7,6.6,7.6,6.6c4,0,7.2-3.1,7.5-7
			c0-0.2,0-0.4,0-0.6C28.6,59.4,25.1,56,20.9,56z M20.3,58.9l0,2.2c-0.2,0.1-0.5,0.2-0.7,0.3l-1.6-1.5C18.7,59.4,19.5,59,20.3,58.9z
			 M17.2,60.8l1.6,1.5c-0.1,0.2-0.2,0.4-0.3,0.7l-2.2,0C16.4,62.2,16.7,61.4,17.2,60.8z M16.3,64.3l2.2,0c0.1,0.2,0.2,0.5,0.3,0.7
			l-1.5,1.6C16.7,65.9,16.4,65.2,16.3,64.3z M18.2,67.5l1.5-1.6c0.2,0.1,0.4,0.2,0.7,0.3l0,2.2C19.6,68.2,18.8,67.9,18.2,67.5z
			 M25.7,62.9l-2.2,0c-0.1-0.2-0.2-0.5-0.3-0.7l1.5-1.6C25.3,61.4,25.6,62.1,25.7,62.9z M21.6,58.9c0.8,0.1,1.6,0.4,2.2,0.9
			l-1.5,1.6c-0.2-0.1-0.4-0.2-0.7-0.3L21.6,58.9z M21.7,68.3l0-2.2c0.2-0.1,0.5-0.2,0.7-0.3l1.6,1.5C23.3,67.9,22.5,68.2,21.7,68.3z
			 M24.8,66.5l-1.6-1.5c0.1-0.2,0.2-0.4,0.3-0.7l2.2,0C25.6,65.1,25.3,65.8,24.8,66.5z"/>
		<path class="st0" d="M77.5,56c-4.2,0-7.6,3.5-7.5,7.7c0,0.3,0,0.6,0.1,1c0.5,3.7,3.7,6.6,7.6,6.6c4,0,7.2-3.1,7.5-7
			c0-0.2,0-0.4,0-0.6C85.1,59.4,81.7,56,77.5,56z M76.9,58.9l0,2.2c-0.2,0.1-0.5,0.2-0.7,0.3l-1.6-1.5C75.3,59.4,76.1,59,76.9,58.9z
			 M73.8,60.8l1.6,1.5c-0.1,0.2-0.2,0.4-0.3,0.7l-2.2,0C73,62.2,73.3,61.4,73.8,60.8z M72.9,64.3l2.2,0c0.1,0.2,0.2,0.5,0.3,0.7
			l-1.5,1.6C73.3,65.9,73,65.2,72.9,64.3z M74.8,67.5l1.5-1.6c0.2,0.1,0.4,0.2,0.7,0.3l0,2.2C76.2,68.2,75.4,67.9,74.8,67.5z
			 M82.3,62.9l-2.2,0c-0.1-0.2-0.2-0.5-0.3-0.7l1.5-1.6C81.8,61.4,82.2,62.1,82.3,62.9z M78.2,58.9c0.8,0.1,1.6,0.4,2.2,0.9
			l-1.5,1.6c-0.2-0.1-0.4-0.2-0.7-0.3L78.2,58.9z M78.3,68.3l0-2.2c0.2-0.1,0.5-0.2,0.7-0.3l1.6,1.5C79.9,67.9,79.1,68.2,78.3,68.3z
			 M81.4,66.5l-1.6-1.5c0.1-0.2,0.2-0.4,0.3-0.7l2.2,0C82.2,65.1,81.9,65.8,81.4,66.5z"/>
	</g>
</g>
</svg>
