<?xml version="1.0" encoding="utf-8"?>
<!-- Generator: Adobe Illustrator 24.3.0, SVG Export Plug-In . SVG Version: 6.00 Build 0)  -->
<svg version="1.1" id="Layer_1" xmlns="http://www.w3.org/2000/svg" xmlns:xlink="http://www.w3.org/1999/xlink" x="0px" y="0px"
	 viewBox="0 0 1093 511" style="enable-background:new 0 0 1093 511;" xml:space="preserve">
<style type="text/css">
	.st0{fill:#9B720A;}
	.st1{fill:#FFC107;}
	.st2{fill:#444444;}
</style>
<path class="st0" d="M311.9,180.5h30.9c2.7,0,5.3-1.3,7-3.4l56.4-72.5c1.7-2.2,4.2-3.5,7-3.4h27.5c2.8,0,5.5,1.4,7.2,3.7
	c1.7,2.3,2.1,5.3,1.2,8L437.3,148c-1.2,3.6-4.6,6-8.4,6h-14c-3.7,0-6.9,2.3-8.2,5.7l-22.2,59.1c-1.3,3.4-4.5,5.7-8.2,5.7h-46.8
	l-3.3-0.1c1-13.9-1.4-29.8-14.4-38.3c-0.9-0.6-1.8-1.2-2.7-1.9L311.9,180.5z"/>
<path class="st0" d="M205,388.8c4.5-9.7-8.7-21-4.4-33.8c5.8-17.3,45-31.7,71-43.3h0.1c5.9,0.6,53.1,7.4,58.3,53.6
	c5.5,49.3-17.1,66.3-23.4,71.3c-6.3,5-29.7,15.8-9.2,43.6l31.8-10c4.1-1.3,8.5,0.5,10.6,4.2l12.6,23.8c1.4,2.7,1.3,6-0.3,8.6
	c-1.6,2.6-4.5,4.2-7.5,4.1h-76.7c-3.4,0-6.6-2-8-5.1l-29.8-65.8c-1.7-3.8-0.4-8.3,3.1-10.7c7.8-5.3,19-16,11.4-31.1
	C237.8,384.9,214.8,387.2,205,388.8z"/>
<path class="st1" d="M42,181.8c0-34.6,26.4-43.4,52.9-43.4c26.4,0,61.7,17.3,52.9,60.6c-8.8,43.4-52.9,43.4,0,86.6
	c0,0,70.5-17.3,61.7-138.6c0,0-6.3,49.2-29.3,69.9c-1.5,1.4-3.8,1.5-5.5,0.4c-1.7-1.2-2.3-3.4-1.5-5.3c4.5-12.6,4.9-26.2,1.1-39
	c-8.8-34.6-52.5-77.6,0-138.6C209.3-6.3,261.5-2.2,288.6,3.7c2,0.5,3.4,2.2,3.4,4.2c0,2-1.3,3.8-3.3,4.3c-18.2,4.6-44,14.1-44,30.9
	c0,0,44.1-17.4,79.3,0c14.3,6.6,28.1,14.5,41.1,23.5c1.8,1.3,2.3,3.8,1.1,5.7c-4.9,8.5-19.1,29.7-33.4,22.7
	c-17.6-8.7-26.4-8.7-35.3,0c-3.6,3.5-4.5,9-2.2,13.5c2.3,4.5,7.3,6.9,12.3,6c7.8-0.8,35.5,0.1,31.9,14.3c-1.4,5.5-7,32.3-16.7,24.9
	c-7.4-4.8-15.3-8.8-23.4-12.1c-8.9-4-18.2-7.2-27.7-9.6v-0.1h-0.2c0.7,1,1.3,1.9,2.1,3c0.9,1.4,1.9,2.8,2.8,4.2l4.4,6
	c0,0.1,0.1,0.1,0.2,0.2c8.8,12.8,19.4,24.3,31.3,34.3c1,0.7,1.9,1.3,2.7,1.9c13,8.5,15.3,24.3,14.4,38.3c-0.4,5.4-1.2,10.8-2.5,16.1
	c-0.6,2.6,0,5.3,1.6,7.4c1.6,2.1,4.2,3.3,6.8,3.3h98c3.1,0,6,1.7,7.6,4.3l10,17.3c1.3,2.2,1.5,4.8,0.7,7.2c-0.8,2.4-2.6,4.3-4.9,5.3
	l-40.5,17c-2.7,1.1-5.8,0.8-8.2-0.8c-2.4-1.6-3.9-4.3-3.9-7.3v-2.4c0-2.6-1.1-5.1-3.1-6.8c-2-1.7-4.6-2.4-7.2-1.9
	C345.7,286,308,297,271.8,311.8h-0.1c-26.1,11.5-47.6,26-53.4,43.3c-3.8,11.5-8.2,22.8-13.2,33.8c-13.7,29.9-28.6,46.3-48.5,52.9
	c-26.4,8.6-26.4,17.3-26.4,34.6h29.8c3.4,0,6.4,1.9,7.9,4.8l8.8,17.3c1.3,2.7,1.2,5.9-0.4,8.5c-1.6,2.6-4.5,4.1-7.5,4h-66.5
	c-4.2,0-7.9-3.1-8.6-7.2l-15-80.8c-0.7-4,1.4-7.9,5.1-9.5c18.4-6.9,32.4-22.2,37.6-41.1c8.8-34.6,8.8-43.3-8.8-69.3
	c-17.6-26-44.1-52-8.8-86.6c35.3-34.6,8.8-60.6-17.6-52c-26.4,8.6,0,52-35.3,60.6c-35.3,8.6-44.1-8.6-44.1-8.6S42,216.4,42,181.8z"
	/>
<g>
	<path class="st0" d="M250.7,93.5c0.6-2.3,2.1-4.2,4.1-5.3c4.2-2.5,9.6-1.1,12.1,3.1c0.1,0.2,16.3,26.9,32.2,50
		c0.1,0.2,0.3,0.4,0.4,0.6c-8.9-4-18.2-7.2-27.7-9.6v-0.1h-0.1c-11.9-18-19.7-31.4-20.1-32C250.5,98.2,250.2,95.8,250.7,93.5z"/>
	<path class="st0" d="M293.7,78.2L276,69.4c-4.4-2.2-6.1-7.5-3.9-11.8s7.5-6.1,11.8-3.9l17.6,8.8c3.7,1.8,5.6,5.9,4.6,9.9
		c-0.9,4-4.5,6.8-8.6,6.8C296.2,79.1,294.9,78.8,293.7,78.2z"/>
</g>
<g>
	<path class="st2" d="M735,174.1c-2.9,2.7-8.5,4-17,4c-6.2,0-14.3-0.5-24.3-1.5c-12.2-1.2-20.3-1.9-24.3-2c-8.6-0.6-15-0.1-18.9,1.5
		c13.7,8.5,27.4,17,40.9,25.6c19.7,13.3,29.3,23.5,28.6,30.6c-1.8,16.4-8.2,30.6-19.3,42.5c-11.5,12.7-24.7,18.4-39.6,17.2
		c-9.5-0.6-18.8-3.9-27.9-9.9c-10.2-6.4-18.2-14.9-23.9-25.7c-25.7,26.7-48.4,39.3-68.1,37.9c-10-0.6-18.8-6.6-26.6-17.9
		c-2.7-3.6-7.9-13.2-15.6-29c-2.9-5.6-5.2-8.5-7-8.7c-0.7,0-3.8,0.4-9.5,1c-5.7,0.7-9,0.9-10.1,0.7c-2.9-0.2-7.5-2-14-5.4
		c-0.9-7,4.8-14,17-21.2c11.1-6.8,20.1-10,26.9-9.6c5.3,0.4,11.6,3.4,18.9,9c1.5,1,2.5,1.5,3,1.5c1.5,0.2,8.6-2.1,21.1-6.9
		c12.5-4.8,22.1-8.8,28.8-11.9c2.9-1.4,6.5-3.9,11-7.5c6.2-5.2,9.6-8.1,10.3-8.7l-88.1,2.1c-0.9,0.4-1.2,1-1,1.8
		c0.2,0.6,0.3,1.3,0.3,2.1c0,3.8-3,7.9-9.1,12.4c-6.1,4.5-11.2,6.6-15.5,6.4c-3.1-0.2-6-2.3-8.8-6.3c-2.8-4-4-7-3.8-9
		c0.7-5.8,6.8-13.3,18.3-22.7c11.1-8.6,20.2-13.7,27.3-15.5l6.6,3.6l0.3,0.3c0.2,0,0.3-0.1,0.3-0.3c0-0.4-0.1-0.6-0.3-0.6
		c-0.2,0.6-0.8,1.9-1.7,3.9c4.7,0.2,10.2,0.5,16.6,0.9l83.8-1.8c1.1,0.2,2.6,1.6,4.5,4.2c1.9,2.6,2.8,4.5,2.8,5.7l6.6-6.6
		c1.3,0,4-0.5,8-1.6c4-1.1,6.5-1.6,7.6-1.6l48.9,1.8c5.5,0.1,14.6,0.6,27.3,1.5l16.3-1.5L735,174.1z M679.5,217.9
		c-2.4-4-6.4-8.9-12-14.9c-29.5-17.3-46.2-26.1-50.2-26.5c-0.9,0-10.9,6.1-29.9,18.4c-20.8,13.5-32,20.6-33.6,21.4
		c-5.1,2.8-12.7,6.1-22.9,10.1c3.5,5.6,9.3,13.7,17.3,24.4c6.6,7.9,14.1,12.2,22.3,12.8c3.1,0.2,11.7-6.2,25.8-19.3
		c14.1-13,25.1-19.4,33.1-19c2.4,0.2,4.4,1.2,6,3c2.7,4.6,7.1,10.9,13.3,19.1c1.3,1.4,5.7,4.1,13,8.1c8.2,4.2,14,6.5,17.3,6.9
		c1.3,0,3.1-1.5,5.3-4.6c2.2-3.1,3.4-5.3,3.7-6.7C689.3,236.2,686.6,225.1,679.5,217.9z"/>
	<path class="st2" d="M764.3,122.5c0,4.6-0.3,7.5-1,8.7c-1.3,3-4.9,6.8-10.6,11.4H736c0.2-7.6-3-16.4-9.6-26.4
		c-2.7-4-8.8-11.7-18.3-23.1c-11.5-13.6-22.2-22.6-31.9-27c-27.7-12.6-60.2-18.9-97.4-18.9c-12.2,0-24.7,1-37.6,3
		c-4.9,0.8-8.6,4.5-11.3,11c-2,5-3,9.8-3,14.6c0,12.1,5.2,22.8,15.6,32.1c11.7,10.1,26.7,15.2,44.9,15.2c2.7,0,5.4,0,8.3,0
		c0,0.2,0.2,0.6,0.5,1c0.3,0.5,0.5,1.1,0.5,1.9c0,2.4-3.3,5.6-10,9.6c-5.5,3.4-9.1,5.3-10.6,5.7c-4,0.8-9.5,1.2-16.6,1.2
		c-18.4,0-33.4-5.1-44.9-15.2c-10.6-9.6-16-21.1-16-34.6c0-12.5,4-22.9,12-31.1c13.3-13.3,28.6-22.6,45.9-27.8c13.1-4,29.4-6,48.9-6
		c14.4,0,28.7,1,42.9,3c7.3,1.8,18.3,4.2,32.9,7.2c17.5,3.4,35.9,15.3,55.2,35.6C754.9,93.3,764.3,109.5,764.3,122.5z"/>
	<path class="st2" d="M862.6,199.3c0,20.9-7.1,39.8-21.3,56.7c-14.8,17.7-32.5,26.6-52.9,26.6c-14,0-27-5-39.1-14.9
		c-12.1-10-18.1-20.8-18.1-32.5c0-19.5,13.4-37.1,40.2-52.8c23-13.5,43.8-20.3,62.2-20.3C853,162,862.6,174.4,862.6,199.3z
		 M832.4,214.5c0-0.8-0.2-3-0.7-6.6c-0.4-3.6-0.7-6.1-0.7-7.6c0-1.5-2.2-4.8-6.6-10c-4.4-5.2-7.9-7.8-10.3-7.8
		c-11.5,0-22.7,3.2-33.6,9.6c-12.9,7.4-19.3,16.6-19.3,27.8c0,9.4,5.7,18.7,17,28.1c11.3,9.4,22.5,14,33.6,14
		c5.5,0,10.6-6.8,15.3-20.3C830.6,230.5,832.4,221.5,832.4,214.5z"/>
	<path class="st2" d="M1080,205.5l-4.7,100.6v39.7c0,3.6-3,8.8-9,15.5h-22.9v-30.8l4.7-72.9l-0.7-8.1
		c-12.9,12.7-31.4,23.6-55.5,32.5c-22.6,8.4-43,12.5-61.2,12.5c-15.5,0-29.7-3-42.5-8.9c-16.6-7.5-24.9-18.4-24.9-32.5
		c0-7.9,5.2-16.9,15.6-26.9c10.4-10,22.2-17.4,35.2-22.2c9.1-2.2,22.8-5.8,41.2-10.7l-77.8-6.3c-5.1,5.4-9.5,9.8-13.3,13.1
		c-10.2,9.2-18.5,14.4-24.9,15.8c-1.1-1-1.7-2.2-1.7-3.6c0-2,1.7-4.2,5.2-6.7c3.4-2.5,5.7-4.6,6.8-6.4c9.5-16.5,17.3-26.7,23.3-30.5
		c5.3-3.6,15-5.4,28.9-5.4l73.1,5.7c0.7,0,3.5-0.2,8.5-0.7c5-0.5,8-0.7,9.1-0.7c12.9,0,19.8,1.9,20.9,5.7
		c10.9-4.2,17.8-6.7,20.9-7.5c5.3-1.6,11.3-2.4,18-2.4c18.8,0,28.3,8.4,28.3,25.1c0,1.8-0.1,4.6-0.3,8.5
		C1080.2,201.2,1080,204,1080,205.5z M1032.5,244.4c0-10-8.4-14.9-25.3-14.9c-0.9,0-6.4,0.5-16.5,1.5c-10.1,1-15.6,1.5-16.5,1.5
		c-9.5,0-14.3-2.8-14.3-8.4c0-7.8,5.8-17,17.3-27.8c-19.3,7.2-46.5,17.5-81.8,31.1c-0.2,14.9,6.3,26.2,19.6,33.7
		c10.6,6,23.8,9,39.6,9c9.7,0,23.4-1.9,40.9-5.7C1020.2,259.2,1032.5,252.5,1032.5,244.4z M1049.5,206.1
		c-2.2-12.5-9.8-18.8-22.6-18.8c-4,0-10.2,1.3-18.6,3.9C997.4,194.4,992,198,992,202v4.5c4.2,0,13.8-0.1,28.9-0.3
		C1032.8,205.9,1042.4,205.9,1049.5,206.1z"/>
</g>
<g>
	<path class="st2" d="M425.6,431.6H503l5-1.4l4-1.6l-7.2,33.8H396.4c-7.6,0-14.2-2.2-19.7-6.6c-5.5-4.4-10-9.9-13.3-16.5
		c-3.3-6.6-5.5-13.6-6.6-21.1c-1.1-7.5-0.9-14.3,0.4-20.6c1.5-7.1,4.4-14.4,8.8-21.9c4.4-7.5,9.7-14.4,16-20.6
		c6.3-6.2,13.2-11.3,20.9-15.2c7.7-3.9,15.6-5.9,23.7-5.9h105.8l-7,32.2H524c-0.4,0-1.5-0.2-3.3-0.5c-1.8-0.3-2.9-0.7-3.3-1.1h-78.8
		c-4,0-7.8,1.1-11.5,3.2c-3.7,2.1-7,4.8-9.9,8.1c-2.9,3.3-5.4,6.8-7.5,10.7c-2.1,3.9-3.4,7.5-4.1,11c-0.8,3.6-1,7.4-0.7,11.4
		c0.3,4,1.3,7.7,2.9,11c1.6,3.3,3.9,6.1,6.8,8.3C417.6,430.5,421.2,431.6,425.6,431.6z"/>
	<path class="st2" d="M518.5,455.5c2.2-2.2,4.1-4.3,5.7-6.3l70.8-93.4l1.2-5h62.4l-1.2,5.8l31,95.6c0.4,1.5,1.1,3,2.2,4.7
		c1.1,1.7,2,3,2.8,4.1l0.2,0.4l-0.2,1h-48c0.7-2.7,0.7-5.2,0.2-7.7c-0.5-2.5-1-4.3-1.4-5.5c-0.1-0.3-0.3-0.7-0.6-1.4
		c-0.3-0.7-0.6-1.4-0.9-2.2c-0.3-0.8-0.6-1.5-0.8-2.2c-0.2-0.7-0.4-1.1-0.5-1.4c-0.3-0.7-0.5-1-0.6-1h-66.6c-0.5,0-1,0.3-1.4,1
		c-2.7,3.5-5.2,6.7-7.6,9.8c-2.4,3.1-4.1,6.6-5,10.6h-48l0.2-1C514.3,459.7,516.3,457.7,518.5,455.5z M631.8,411.2l-11-32.6
		l-24.4,32.6H631.8z"/>
	<path class="st2" d="M867,350.8l0.8,1c0,0.5-0.3,2-1,4.4l-1.2,5.8c-1.5,7.2-3.2,13.7-5.1,19.6c-1.9,5.9-5,12-9.3,18.4
		c3.6,3.9,6.3,7.5,8.1,11c1.8,3.5,3,7,3.6,10.6c0.6,3.6,0.7,7.5,0.2,11.6c-0.5,4.1-1.3,8.9-2.5,14.2l-3,14l-1.2,1h-157
		c1.1-1.9,2.2-3.8,3.5-5.9c1.3-2.1,2.1-4.2,2.5-6.5l18.8-87c0.5-2.3,0.6-4.3,0.1-6.1c-0.5-1.8-0.8-3.8-0.9-6.1H867z M752.6,434.8
		h62.8c0.1-0.9,0.2-2.3,0.2-4.2c0-1.9-0.2-3.7-0.7-5.5c-0.5-1.8-1.1-3.4-2-4.7c-0.9-1.3-2-2-3.5-2h-53.2L752.6,434.8z M761,396.8
		h39.8c2.5,0,5.2-1.3,8.1-3.8c2.9-2.5,5-7,6.5-13.4h-50.8L761,396.8z"/>
	<path class="st2" d="M879.2,434.4c2.1,0.9,4.2,1.4,6.2,1.4h87.8c0.4-1.7,0.7-3.2,0.8-4.3c0.1-1.1,0.1-2.2-0.2-3.1
		c-0.3-0.9-0.8-1.8-1.5-2.7c-0.7-0.9-1.8-2-3.1-3.3c-0.3-0.3-0.7-0.6-1.3-0.9c-0.6-0.3-1-0.5-1.3-0.5h-49.2c-4.1,0-8.4-1-12.8-3
		c-4.4-2-8.3-4.6-11.7-7.9c-3.4-3.3-6-7-7.8-11.3c-1.8-4.3-2.2-8.7-1.1-13.2l7.4-34.8h136.4l-6.6,30.8c-0.8-0.3-2.2-0.8-4.3-1.7
		c-2.1-0.9-3.6-1.3-4.7-1.3h-79.6l-0.2,1.6c-0.5,2.4-0.7,4.4-0.4,5.9c0.3,1.5,0.7,2.8,1.4,3.7c0.7,0.9,1.5,1.6,2.4,2
		c0.9,0.4,1.9,0.6,3,0.6H989c3.3,0,6.7,0.4,10,1.2c3.3,0.8,6.3,1.9,9,3.3c2.7,1.4,4.9,3.1,6.8,5c1.9,1.9,3.1,4,3.8,6.1
		c1.5,3.1,2.4,6.2,2.9,9.4c0.5,3.2,0.6,6.4,0.4,9.7c-0.2,3.3-0.6,6.6-1.2,10c-0.6,3.4-1.3,6.8-2.1,10.3l-3.2,15h-148l6.4-29.8
		C875.3,432.9,877.1,433.5,879.2,434.4z"/>
</g>
</svg>
